<svg xmlns="http://www.w3.org/2000/svg" viewBox="0 0 240 240" width="240" height="240">
  <defs>
    <linearGradient id="a2bg" x1="0" y1="0" x2="0" y2="1">
      <stop offset="0" stop-color="#7a1720"/>
      <stop offset="1" stop-color="#4d0d13"/>
    </linearGradient>
  </defs>
  <rect width="240" height="240" fill="url(#a2bg)"/>
  <!-- armor shoulders -->
  <path d="M48 240 C50 186 86 166 120 166 C154 166 190 186 192 240 Z" fill="#3a4048"/>
  <path d="M72 240 C74 200 92 182 120 182 C148 182 166 200 168 240 Z" fill="#2b3037"/>
  <rect x="108" y="176" width="24" height="64" rx="6" fill="#8a5a2b"/>
  <circle cx="120" cy="196" r="6" fill="#ffcf4a"/>
  <circle cx="120" cy="216" r="6" fill="#ffcf4a"/>
  <!-- neck -->
  <path d="M106 148 h28 v14 c0 12 -28 12 -28 0 Z" fill="#c99562"/>
  <!-- head -->
  <ellipse cx="120" cy="100" rx="46" ry="52" fill="#d8a56e"/>
  <path d="M120 100 C146 100 166 90 166 100 C166 128 146 152 120 152 C118 130 118 118 120 100 Z" fill="#c78f57" opacity="0.4"/>
  <!-- ears -->
  <circle cx="74" cy="104" r="9" fill="#d8a56e"/>
  <circle cx="166" cy="104" r="9" fill="#d8a56e"/>
  <!-- helmet band + topknot -->
  <path d="M72 84 C74 46 96 32 120 32 C144 32 166 46 168 84 C150 68 90 68 72 84 Z" fill="#2b2620"/>
  <path d="M120 20 c10 0 16 8 16 16 c0 8 -6 14 -16 14 c-10 0 -16 -6 -16 -14 c0 -8 6 -16 16 -16 Z" fill="#2b2620"/>
  <rect x="70" y="80" width="100" height="12" rx="6" fill="#c0392b"/>
  <rect x="70" y="80" width="100" height="5" rx="3" fill="#e05545"/>
  <circle cx="120" cy="86" r="5" fill="#ffcf4a"/>
  <!-- stern eyebrows -->
  <path d="M90 96 q12 -3 22 3" stroke="#2b2620" stroke-width="5" fill="none" stroke-linecap="round"/>
  <path d="M128 99 q12 -6 22 -3" stroke="#2b2620" stroke-width="5" fill="none" stroke-linecap="round"/>
  <!-- eyes -->
  <ellipse cx="102" cy="106" rx="6.5" ry="6" fill="#fff"/>
  <ellipse cx="138" cy="106" rx="6.5" ry="6" fill="#fff"/>
  <circle cx="103" cy="106" r="3.6" fill="#2b1c12"/>
  <circle cx="139" cy="106" r="3.6" fill="#2b1c12"/>
  <!-- nose -->
  <path d="M120 110 q5 9 -2 14" stroke="#b57e4a" stroke-width="3.5" fill="none" stroke-linecap="round"/>
  <!-- mustache + beard -->
  <path d="M96 130 q24 8 48 0 q-4 26 -24 30 q-20 -4 -24 -30 Z" fill="#2b2620"/>
  <path d="M100 128 q20 6 40 0 q-6 8 -20 8 q-14 0 -20 -8 Z" fill="#1f1b16"/>
  <!-- mouth -->
  <path d="M108 132 q12 5 24 0" stroke="#6e3b28" stroke-width="3" fill="none" stroke-linecap="round"/>
</svg>
