<svg xmlns="http://www.w3.org/2000/svg" viewBox="0 0 240 240" width="240" height="240">
  <defs>
    <linearGradient id="a4bg" x1="0" y1="0" x2="0" y2="1">
      <stop offset="0" stop-color="#1f3a6b"/>
      <stop offset="1" stop-color="#122446"/>
    </linearGradient>
  </defs>
  <rect width="240" height="240" fill="url(#a4bg)"/>
  <!-- jacket shoulders -->
  <path d="M50 240 C52 186 86 166 120 166 C154 166 188 186 190 240 Z" fill="#2b2f36"/>
  <path d="M120 166 C112 176 110 210 112 240 L128 240 C130 210 128 176 120 166 Z" fill="#e7edf3"/>
  <path d="M96 176 l24 14 -14 22 -22 -20 Z" fill="#3a4048"/>
  <path d="M144 176 l-24 14 14 22 22 -20 Z" fill="#3a4048"/>
  <!-- neck -->
  <path d="M106 150 h28 v12 c0 12 -28 12 -28 0 Z" fill="#c98f5f"/>
  <!-- head -->
  <ellipse cx="120" cy="100" rx="46" ry="52" fill="#e0aa72"/>
  <path d="M120 100 C146 100 166 92 166 100 C166 128 146 152 120 152 Z" fill="#cf9860" opacity="0.35"/>
  <!-- ears -->
  <circle cx="74" cy="106" r="9" fill="#e0aa72"/>
  <circle cx="166" cy="106" r="9" fill="#e0aa72"/>
  <!-- slick dark hair -->
  <path d="M70 96 C66 52 92 34 120 34 C150 34 176 54 170 98 C164 82 158 74 150 70 C158 60 150 52 150 52 C140 62 100 58 88 66 C96 56 90 52 90 52 C80 62 74 78 70 96 Z" fill="#241f24"/>
  <path d="M88 66 C104 56 140 58 150 70 C130 62 108 62 88 66 Z" fill="#3a3138"/>
  <!-- eyebrows -->
  <path d="M92 90 q11 -3 21 1" stroke="#241f24" stroke-width="4" fill="none" stroke-linecap="round"/>
  <path d="M127 91 q11 -4 21 -1" stroke="#241f24" stroke-width="4" fill="none" stroke-linecap="round"/>
  <!-- sunglasses -->
  <rect x="86" y="98" width="30" height="20" rx="9" fill="#15181d"/>
  <rect x="124" y="98" width="30" height="20" rx="9" fill="#15181d"/>
  <rect x="116" y="104" width="8" height="5" rx="2" fill="#15181d"/>
  <path d="M78 104 l8 -3 M162 104 l-8 -3" stroke="#15181d" stroke-width="4" stroke-linecap="round"/>
  <path d="M90 102 l14 3" stroke="#5a6472" stroke-width="3" stroke-linecap="round" opacity="0.7"/>
  <path d="M128 102 l14 3" stroke="#5a6472" stroke-width="3" stroke-linecap="round" opacity="0.7"/>
  <!-- nose -->
  <path d="M120 116 q5 6 -1 10" stroke="#c58c58" stroke-width="3" fill="none" stroke-linecap="round"/>
  <!-- smirk -->
  <path d="M104 132 q18 10 34 -4" stroke="#8a4a34" stroke-width="4" fill="none" stroke-linecap="round"/>
</svg>
